<?xml version="1.0" encoding="utf-8"?>
<!-- Generator: Adobe Illustrator 23.0.0, SVG Export Plug-In . SVG Version: 6.00 Build 0)  -->
<svg version="1.1" id="Calque_1" xmlns="http://www.w3.org/2000/svg" xmlns:xlink="http://www.w3.org/1999/xlink" x="0px" y="0px"
	 viewBox="0 0 72.6 53.4" style="enable-background:new 0 0 72.6 53.4;" xml:space="preserve">
<style type="text/css">
	.st0{fill:#4B4A4A;}
</style>
<g>
	<path class="st0" d="M65.2,53.4c-0.3,0-0.6-0.1-0.8-0.2c-0.8-0.3-1.2-1.1-1.2-1.9c0.2-4.3,0.3-9.4,0.3-14.9c0-0.6,0-1.1-0.1-1.7
		c-8.4,3.2-17,1.6-25.5,0c-4.8-0.9-9.4-1.7-13.9-1.7c-1.3,0-2.9,0.1-4.5,0.3c-3.2,0.3-6.8,0.6-10,0c-0.1,1-0.1,2.1-0.1,3.1
		c0,6,0.1,10.6,0.4,14.5c0.1,0.8-0.3,1.5-1,1.9c-0.7,0.4-1.5,0.4-2.1-0.1c0,0-0.1-0.1-0.2-0.1c-0.5,0-0.9,0-1.3,0.2
		c-0.6,0.3-1.2,0.3-1.8,0c-0.6-0.3-1-0.8-1.1-1.4c-1.2-5.8-1.9-17.5-1-24c-0.1-0.1-0.1-0.3-0.2-0.4c-2-4.6-1-10.2-0.7-11.8
		c0,0,0-0.1,0-0.1c1.8-6.4,3.7-9.4,6.1-9.8c1.2-0.3,2,0.5,2.4,0.9c0.9,0.4,1.7,0.6,2.6,0.6c2.4,0.1,4.9-0.7,7.3-1.4l0.3-0.1
		c1-0.3,2-0.7,3.1-1C28.5,2.1,34.8,0,41.7,0C50,0.1,58.1,3.6,63.5,9.3c2,2.4,3.5,4.8,4.4,7.2c7.1,7.5,4.9,26.4,2.2,35
		c-0.3,0.8-1,1.4-1.9,1.4c-0.2,0-0.5,0-0.8-0.1c-0.1,0-0.2,0-0.2,0c-0.1,0-0.4,0-0.5,0c0,0,0,0-0.1,0C66.2,53.2,65.7,53.4,65.2,53.4
		z M5,25.6c0.4,0.4,0.6,1.1,0.5,1.6C4.7,31.6,5,39.7,5.6,45.8C5.5,43,5.5,40,5.5,36.4c0-2.1,0.1-4.1,0.3-5.9c0.1-0.6,0.4-1.2,1-1.5
		c0.5-0.3,1.2-0.4,1.8-0.1c2.9,1.2,7.1,0.8,10.7,0.5c1.7-0.2,3.3-0.3,4.8-0.3c4.9,0,9.8,0.9,14.6,1.8c9,1.6,17.4,3.2,25.3-0.7
		c0.6-0.3,1.4-0.3,1.9,0.1c0.4,0.2,0.6,0.5,0.8,0.9c0.3,0.3,0.5,0.8,0.6,1.2c0.1,1.3,0.2,2.7,0.2,4.1c0,3.2,0,6.3-0.1,9.2
		c1.7-8.7,2.2-21.2-2.4-26.2c-0.5-0.3-0.8-0.8-0.9-1.3c-0.7-2-1.9-4-3.6-6c-4.5-4.9-11.6-7.9-18.8-8c-6.2,0-12,1.9-18,3.9
		c-1,0.3-2.1,0.7-3.1,1L20.2,9c-2.6,0.8-5.5,1.7-8.6,1.6c0,0,0,0,0,0c-1.3,0-2.7-0.3-4.1-0.9C7.4,9.7,7.2,9.6,7.1,9.5
		c-0.5,0.7-1.5,2.4-2.6,6.5c-0.6,2.8-0.8,6.7,0.5,9.4C4.9,25.4,5,25.5,5,25.6C5,25.6,5,25.6,5,25.6z M4.9,25.5
		C4.9,25.5,4.9,25.5,4.9,25.5C4.9,25.5,4.9,25.5,4.9,25.5z M7.5,9L7.5,9L7.5,9z"/>
</g>
</svg>
