<?xml version="1.0" encoding="utf-8"?>
<!-- Generator: Adobe Illustrator 23.0.0, SVG Export Plug-In . SVG Version: 6.00 Build 0)  -->
<svg version="1.1" id="Calque_1" xmlns="http://www.w3.org/2000/svg" xmlns:xlink="http://www.w3.org/1999/xlink" x="0px" y="0px"
	 viewBox="0 0 36.4 42" style="enable-background:new 0 0 36.4 42;" xml:space="preserve">
<style type="text/css">
	.st0{fill:#4A4A4A;}
</style>
<path class="st0" d="M36.4,26.6c-0.1-1.4-0.8-3.1-2.5-3.6c-0.3-0.1-0.5-0.1-0.7-0.1c0.1-1.8,0.1-3.8,0.1-6c0-5.7-1.6-10.1-4.7-13
	C24.5-0.1,19,0,18.2,0c-0.8,0-6.3-0.1-10.5,3.9c-3.1,2.9-4.6,7.3-4.6,13c0,2.2,0,4.2,0.1,6c-0.2,0-0.4,0-0.7,0.1
	c-1.6,0.5-2.4,2.2-2.5,3.6c-0.1,1.2,0.2,2.2,0.9,3c0.7,0.8,1.7,1.2,3,1.4C5.3,39.2,9,42,18.2,42c9.1,0,12.9-2.8,14.3-11.1
	c1.3-0.2,2.3-0.6,3-1.4C36.2,28.8,36.5,27.8,36.4,26.6z M2.4,28.2C2.1,27.9,2,27.4,2,26.7c0.1-0.8,0.4-1.7,1.1-1.9
	c0.1,0,0.1,0,0.2,0c0.1,1.4,0.2,2.7,0.3,3.9C3.1,28.7,2.7,28.5,2.4,28.2z M18.2,40c-11,0-13.1-3.7-13.1-23.1c0-5.1,1.4-9,4-11.5
	C12.4,2.2,16.8,2,17.9,2c0.2,0,0.3,0,0.3,0c0.2,0,5.3-0.2,9,3.3c2.7,2.5,4,6.4,4,11.5c0,5.6-0.2,9.9-0.6,13.2
	C29.4,38.2,26.2,40,18.2,40z M34,28.2c-0.3,0.3-0.7,0.5-1.2,0.6c0.1-1.2,0.2-2.5,0.3-3.9c0.1,0,0.1,0,0.2,0c0.6,0.2,1,1.1,1.1,1.8
	C34.4,27.4,34.3,27.9,34,28.2z"/>
</svg>
