<?xml version="1.0" encoding="utf-8"?>
<!-- Generator: Adobe Illustrator 23.0.0, SVG Export Plug-In . SVG Version: 6.00 Build 0)  -->
<svg version="1.1" id="Calque_1" xmlns="http://www.w3.org/2000/svg" xmlns:xlink="http://www.w3.org/1999/xlink" x="0px" y="0px"
	 viewBox="0 0 36.4 31.6" style="enable-background:new 0 0 36.4 31.6;" xml:space="preserve">
<style type="text/css">
	.st0{fill:#4A4A4A;}
</style>
<path class="st0" d="M28.8,0.2l-0.3-0.1c-0.4-0.2-0.8-0.1-1.2,0.2L27,0.6c-1.1,1.3-4.5,2.6-8.9,2.6c-4,0-7.7-1.1-8.8-2.5L9.2,0.4
	C8.9,0,8.4-0.1,7.9,0.1L7.7,0.3C2.7,2.8-1.5,7,0.5,30.7c0,0.5,0.5,0.9,1,0.9h33.4c0.5,0,1-0.4,1-0.9C37.9,7,33.7,2.8,28.8,0.2z
	 M34,29.6h-5c0.1-8.8,0.4-13.7,0.7-17.2c0-0.6-0.4-1-0.9-1.1c-0.6-0.1-1,0.4-1.1,0.9c-0.3,3.6-0.6,8.4-0.7,17.4H9.4
	C9.3,20.7,9,15.8,8.7,12.2c0-0.5-0.5-1-1.1-0.9c-0.6,0-1,0.5-0.9,1.1c0.3,3.5,0.6,8.3,0.7,17.2H2.5C0.7,8.7,4.1,4.5,8.1,2.3
	c1.8,1.8,5.7,2.9,10,2.9c4.4,0,8.3-1.2,10.1-2.9C32.3,4.4,35.6,8.6,34,29.6z"/>
</svg>
